<svg width="763" height="208" viewBox="0 0 763 208" fill="none" xmlns="http://www.w3.org/2000/svg">
<rect x="9" y="9" width="745" height="190" fill="#A1BB69" stroke="#A1BB69" stroke-width="18"/>
<path d="M98.6 70H105.9V140H98.6V70ZM54.8 140H47.4V70H54.8V140ZM99.3 107.7H54V101.2H99.3V107.7ZM135.348 101.3H172.348V107.6H135.348V101.3ZM136.148 133.6H178.248V140H128.748V70H176.748V76.4H136.148V133.6ZM184.442 140L216.442 70H223.742L255.742 140H247.942L218.542 74.3H221.542L192.142 140H184.442ZM197.042 121.3L199.242 115.3H239.942L242.142 121.3H197.042ZM267.322 140V70H274.722V133.6H313.922V140H267.322ZM333.266 140V76.4H308.666V70H365.266V76.4H340.666V140H333.266ZM428.288 70H435.588V140H428.288V70ZM384.488 140H377.088V70H384.488V140ZM428.988 107.7H383.688V101.2H428.988V107.7ZM475.135 140V114L476.835 118.6L447.135 70H455.035L481.135 112.7H476.935L503.035 70H510.435L480.735 118.6L482.435 114V140H475.135Z" fill="white"/>
<path d="M579.607 18H745V190H472L579.607 18Z" fill="white"/>
<path d="M575.4 141V71H581.5L613.5 125.6H610.3L642 71H648.1V141H641V82.1H642.7L613.5 132.1H610L580.6 82.1H582.5V141H575.4ZM677.508 102.3H714.508V108.6H677.508V102.3ZM678.308 134.6H720.408V141H670.908V71H718.908V77.4H678.308V134.6Z" fill="#E984A2"/>
</svg>
